<svg id="Layer_1" data-name="Layer 1" xmlns="http://www.w3.org/2000/svg" width="42.86mm" height="19.33mm" viewBox="0 0 121.5 54.8">
  <defs>
    <style>
      .cls-1 {
        fill: #eb008b;
      }

      .cls-2 {
        fill: #812a8f;
      }

      .cls-3 {
        fill: #fffdfd;
      }

      .cls-4 {
        fill: #fdf6f9;
      }

      .cls-5 {
        fill: none;
      }

      .cls-6 {
        fill: #fff;
      }
    </style>
  </defs>
  <path class="cls-1" d="M109.2,2.6c-2.7-.4-5.5-1.1-8.2-1.7s-4.4.1-4.3,3.2v.8c-.3,3.9-.5,6-1.4,7a1.7,1.7,0,0,0-.7-.1H9.1a3.1,3.1,0,0,0-3.1,3V42.5a3,3,0,0,0,3.1,3H94.6a3.08,3.08,0,0,0,2.9-2c.1-.1.1-.3.2-.5.3-2.1,1-3.2,3.8-2.7,4.2.7,7.7-2.6,6.9-6.5-.7-3.5.5-6.6,1-9.8.9-5.5,2-10.9,3.3-16.3C113.5,4.6,112.5,3.1,109.2,2.6Z"/>
  <path class="cls-2" d="M107.6,40.2c2.6,4,5.1,8.1,7.7,12.2,4.8-4.9,4.7-4.8-.5-8.3-2.2-1.5-4.2-3.3-6.3-5A10.63,10.63,0,0,0,107.6,40.2Z"/>
  <path class="cls-2" d="M105.6,42c-.5,2.9-.9,5.8-1.6,8.7-.4,1.7,0,2.2,1.8,2.3,4.5.3,4.8.1,3.1-4.2-.9-2.3-1.7-4.5-2.6-6.8Z"/>
  <path class="cls-2" d="M109.9,36.8c2.9-.4,5.8-.7,8.7-1.1,1.7-.3,2.2.1,2.2,1.9.1,4.5-.2,4.8-4.4,2.9-2.2-1-4.4-2-6.6-2.9A2.49,2.49,0,0,0,109.9,36.8Z"/>
  <path class="cls-2" d="M6.6,11.3C5.8,9.5,5.3,8.2,4.8,6.8c-.7-1.7-1.6-1.7-2.9-.7-.8.6-1.6,1-.1,1.9S4.7,10,6.6,11.3Z"/>
  <path class="cls-3" d="M100.9,3.2c-1.6,0-1.3,1.1-1.4,2-.5,6.8-.9,13.6-1.4,20.3-.1,1.3.3,1.8,1.6,2s2.8.5,4.2.8c1.8.5,2.5-.1,2.8-2,1.1-6.3,2.4-12.6,3.6-18.9.2-.8.8-1.9-.6-2.2C106.7,4.5,103.7,3.9,100.9,3.2Z"/>
  <path class="cls-4" d="M97,33.1a5.35,5.35,0,0,0,5.8,4.9,3.85,3.85,0,0,0,3.6-4.2c0-2.5-2.9-4.9-5.6-4.7S97,31,97,33.1Z"/>
  <path class="cls-5" d="M84,23.8v3h4.3a.68.68,0,0,1,.7.7v2.6a.68.68,0,0,1-.7.7H84v3l6.6-.1c.2,0,.3.1.4.1,0-3.3-.1-6.5-.1-9.8v-.6a.76.76,0,0,1-.4.2Z"/>
  <g>
    <path class="cls-6" d="M29.6,40.3a1,1,0,0,1,.1.9.89.89,0,0,1-.8.5H25.1a.91.91,0,0,1-.7-.3L16.5,30.2l.1,8a.9.9,0,0,1-.9.9H12.6a.9.9,0,0,1-.9-.9L11.5,18a.9.9,0,0,1,.9-.9h3.1a.9.9,0,0,1,.9.9l.1,8,5.7-8.6a1,1,0,0,1,.7-.4h3.8a1,1,0,0,1,.8.5.76.76,0,0,1-.1.9L21,28.1l8.6,12.2Z"/>
    <path class="cls-6" d="M40.7,14.1a.71.71,0,0,1,.6.3.86.86,0,0,1,.3.6l.2,15.9a7.93,7.93,0,0,1-2.3,5.7,7.76,7.76,0,0,1-5.8,2.3,8.12,8.12,0,0,1-7.8-8l-.1-13a.9.9,0,0,1,.9-.9h3.1a.9.9,0,0,1,.9.9L30.8,31a3.15,3.15,0,0,0,2.9,3.1,2.86,2.86,0,0,0,2.3-.8,3.1,3.1,0,0,0,.9-2.2l-.2-15.9a.9.9,0,0,1,.9-.9l3.1-.2Z"/>
    <path class="cls-6" d="M63.6,16.9a.86.86,0,0,1,.3.6l.2,20.3a.9.9,0,0,1-.9.9H60.1a.9.9,0,0,1-.9-.9l-.1-9.5L54.2,39.7a.89.89,0,0,1-1.6,0L47.5,28.4l.1,9.5a.9.9,0,0,1-.9.9H43.6a.9.9,0,0,1-.9-.9l-.2-20.3a.9.9,0,0,1,.9-.9h3.7a.79.79,0,0,1,.8.5l5.5,12.1,5.2-12.2a.79.79,0,0,1,.8-.5h3.7A.91.91,0,0,1,63.6,16.9Z"/>
    <path class="cls-6" d="M78.8,26.4a6.7,6.7,0,0,1-4.2,12l-8.9.1a.9.9,0,0,1-.9-.9l-.2-20.2a.9.9,0,0,1,.9-.9l7.3-.1a6.81,6.81,0,0,1,6.9,6.3,6,6,0,0,1-.9,3.7ZM69.6,25H73a1.8,1.8,0,0,0,0-3.6H69.6Zm5.1,8.4a1.8,1.8,0,0,0,0-3.6l-5,.1v3.6l5-.1Z"/>
    <path class="cls-6" d="M94.5,33.4l-8,.1V29.8l5.2-.1a.9.9,0,0,0,.9-.9V25.7a.9.9,0,0,0-.9-.9l-5.2.1V21.2l8-.1a.76.76,0,0,0,.5-.2c0-1.5,0-3-.1-4.5a.76.76,0,0,0-.5-.2l-12,.1h0a1.06,1.06,0,0,0-.9.9l.2,20.3a.9.9,0,0,0,.9.9l12-.1a.76.76,0,0,0,.5-.2c0-1.5,0-3-.1-4.5C94.9,33.4,94.7,33.4,94.5,33.4Z"/>
  </g>
  <g>
    <path d="M11.5,50.7,10,48.1h1l.8,1.5.1.4h0l.1-.5.8-1.5h.9l-1.5,2.6v1.5h-.9V50.7Z"/>
    <path d="M13.8,50.2a2.77,2.77,0,0,1,.1-.9,1.61,1.61,0,0,1,.4-.7,2.09,2.09,0,0,1,.6-.4,2,2,0,0,1,.8-.1,1.88,1.88,0,0,1,.8.2c.2.1.4.3.6.4a1.61,1.61,0,0,1,.4.7,4.1,4.1,0,0,1,0,1.8,1.61,1.61,0,0,1-.4.7,2.09,2.09,0,0,1-.6.4,2,2,0,0,1-.8.1,1.88,1.88,0,0,1-.8-.2c-.2-.1-.4-.3-.6-.4s-.3-.4-.4-.7S13.8,50.5,13.8,50.2Zm1,0a1.27,1.27,0,0,0,.1.6.52.52,0,0,0,.2.4l.3.3a.6.6,0,0,0,.4.1.78.78,0,0,0,.7-.3,1.61,1.61,0,0,0,.3-1.1,1.27,1.27,0,0,0-.1-.6.52.52,0,0,0-.2-.4l-.3-.3a.75.75,0,0,0-.5-.1.78.78,0,0,0-.7.3C14.8,49.3,14.8,49.7,14.8,50.2Z"/>
    <path d="M20.8,48.1h.8v2.7a1.48,1.48,0,0,1-.1.7,2.19,2.19,0,0,1-.3.5,2.19,2.19,0,0,1-.5.3,1.27,1.27,0,0,1-.6.1,1.7,1.7,0,0,1-1.3-.4,1.25,1.25,0,0,1-.4-1.1V48.1h.9v2.6a1.45,1.45,0,0,0,.2.7,1,1,0,0,0,1.2,0,1.17,1.17,0,0,0,.2-.7V48.1Z"/>
    <path d="M22.3,48.1h1.2a1.27,1.27,0,0,1,.6.1.76.76,0,0,1,.5.2.78.78,0,0,1,.4.4,1.08,1.08,0,0,1,.1.6,1.14,1.14,0,0,1-.3.8,1,1,0,0,1-.7.4l.3.2,1,1.6h-1l-1-1.6-.5-.1v1.7H22V48.1Zm1.4.7h-.5V50h.4a1.27,1.27,0,0,0,.6-.1.76.76,0,0,0,.2-.5.52.52,0,0,0-.2-.4A.76.76,0,0,0,23.7,48.8Z"/>
    <path d="M29.4,50.1h1.7V52c-.1.1-.2.1-.3.2s-.2.1-.3.1-.2.1-.4.1h-.4a2,2,0,0,1-.8-.1c-.2-.1-.5-.2-.6-.4a1.61,1.61,0,0,1-.4-.7,2.6,2.6,0,0,1,0-2,1.79,1.79,0,0,1,.5-.7,1.61,1.61,0,0,1,.7-.4,2.2,2.2,0,0,1,.8-.1,1.48,1.48,0,0,1,.7.1,4.33,4.33,0,0,1,.5.1l-.2.7c-.1,0-.2-.1-.4-.1H30a.75.75,0,0,0-.5.1.52.52,0,0,0-.4.2c-.1.1-.2.3-.3.4a1.27,1.27,0,0,0-.1.6c0,.2,0,.5.1.6s.1.3.3.4a.52.52,0,0,0,.4.2.75.75,0,0,0,.5.1h.3c.1,0,.2-.1.3-.1v-.7l-1-.1v-.4Z"/>
    <path d="M34.2,48.1H35v2.7a1.48,1.48,0,0,1-.1.7,2.19,2.19,0,0,1-.3.5,2.19,2.19,0,0,1-.5.3,1.27,1.27,0,0,1-.6.1,1.7,1.7,0,0,1-1.3-.4,1.25,1.25,0,0,1-.4-1.1V48.1h.9v2.6a1.45,1.45,0,0,0,.2.7,1,1,0,0,0,1.2,0,1.17,1.17,0,0,0,.2-.7V48.1Z"/>
    <path d="M36.1,48.6h-.5v-.5h1.8v.5H37v3.2h.5v.5H35.7v-.5h.5V48.6Z"/>
    <path d="M38.1,48.1h1.4a3,3,0,0,1,1,.2,4.35,4.35,0,0,1,.7.4,1.61,1.61,0,0,1,.4.7,3.25,3.25,0,0,1,0,1.6,1.61,1.61,0,0,1-.4.7,1.79,1.79,0,0,1-.7.5,3.59,3.59,0,0,1-1.1.2H38.1Zm1.3.7h-.5v2.7h.4c.3,0,.5,0,.6-.1a1.38,1.38,0,0,0,.4-.3.76.76,0,0,0,.2-.4c0-.2.1-.3.1-.5a1.09,1.09,0,0,0-.1-.5.52.52,0,0,0-.2-.4,1.38,1.38,0,0,0-.4-.3C39.9,48.9,39.7,48.8,39.4,48.8Z"/>
    <path d="M42.2,48.1h2.7v.8H43.1v.9h1.6v.8H43.1v.9h1.8v.8H42.2Z"/>
    <path d="M50.2,48.9H48.9v3.4H48V48.9H46.7v-.8h3.5Z"/>
    <path d="M50.3,50.2a2.77,2.77,0,0,1,.1-.9,1.61,1.61,0,0,1,.4-.7,2.09,2.09,0,0,1,.6-.4,2,2,0,0,1,.8-.1,1.88,1.88,0,0,1,.8.2c.2.1.4.3.6.4a1.61,1.61,0,0,1,.4.7,4.1,4.1,0,0,1,0,1.8,1.61,1.61,0,0,1-.4.7,2.09,2.09,0,0,1-.6.4,2,2,0,0,1-.8.1,1.88,1.88,0,0,1-.8-.2c-.2-.1-.4-.3-.6-.4s-.3-.4-.4-.7A2.77,2.77,0,0,1,50.3,50.2Zm.9,0a1.27,1.27,0,0,0,.1.6.52.52,0,0,0,.2.4l.3.3a.6.6,0,0,0,.4.1.78.78,0,0,0,.7-.3,1.61,1.61,0,0,0,.3-1.1,1.27,1.27,0,0,0-.1-.6.52.52,0,0,0-.2-.4l-.3-.3a.75.75,0,0,0-.5-.1.78.78,0,0,0-.7.3A2.68,2.68,0,0,0,51.2,50.2Z"/>
    <path d="M58.3,51.4H56.9l-.3.9h-.9l1.6-4.2h.6l1.6,4.2h-.9Zm-1.2-.7h1l-.3-.9-.1-.7h0l-.1.7Z"/>
    <path d="M63.9,50.5H62.2v1.7h-.9V48h.9v1.7h1.7V48h.9v4.2h-.9Z"/>
    <path d="M65.5,48.1h2.7v.8H66.4v.9H68v.8H66.4v.9h1.8v.8H65.5Z"/>
    <path d="M71.1,51.4H69.7l-.3.9h-.9l1.6-4.2h.6l1.6,4.2h-.9ZM70,50.7h1l-.3-.9-.1-.7h0l-.1.7Z"/>
    <path d="M75.7,52.3H72.8V48.1h.9v3.4h2Z"/>
    <path d="M78.5,48.9H77.2v3.4h-.9V48.9H75v-.8h3.5Z"/>
    <path d="M81.5,50.5H79.8v1.7h-.9V48h.9v1.7h1.7V48h.9v4.2h-.9Z"/>
    <path d="M84.2,50.7l-1.5-2.6h1l.8,1.5.1.4h0l.1-.5.8-1.5h.9l-1.5,2.6v1.5H84V50.7Z"/>
    <path d="M91.3,52.3H88.4V48.1h.9v3.4h2Z"/>
    <path d="M92.1,48.6h-.5v-.5h1.8v.5H93v3.2h.5v.5H91.7v-.5h.5V48.6Z"/>
    <path d="M94.1,48.1h2.7v.8H95v1h1.7v.8H95v1.6h-.9Z"/>
    <path d="M97.3,48.1H100v.8H98.2v.9h1.6v.8H98.2v.9H100v.8H97.3Z"/>
  </g>
</svg>
