<?xml version="1.0" encoding="utf-8"?>
<!-- Generator: Adobe Illustrator 24.2.1, SVG Export Plug-In . SVG Version: 6.00 Build 0)  -->
<svg version="1.0" id="Layer_1" xmlns="http://www.w3.org/2000/svg" xmlns:xlink="http://www.w3.org/1999/xlink" x="0px" y="0px"
	 width="121.5px" height="54.8px" viewBox="0 0 121.5 54.8" style="enable-background:new 0 0 121.5 54.8;" xml:space="preserve">
<path id="XMLID_255_" style="fill:#EB008B;" d="M109.2,2.6c-2.7-0.4-5.5-1.1-8.2-1.7c-2.8-0.6-4.4,0.1-4.3,3.2c0,0.3,0,0.5,0,0.8
	c-0.3,3.9-0.5,6-1.4,7c-0.2-0.1-0.5-0.1-0.7-0.1H9.1c-1.7,0-3.1,1.4-3.1,3v27.7c0,1.7,1.4,3,3.1,3h85.5c1.4,0,2.5-0.9,2.9-2
	c0.1-0.1,0.1-0.3,0.2-0.5c0.3-2.1,1-3.2,3.8-2.7c4.2,0.7,7.7-2.6,6.9-6.5c-0.7-3.5,0.5-6.6,1-9.8c0.9-5.5,2-10.9,3.3-16.3
	C113.5,4.6,112.5,3.1,109.2,2.6z"/>
<path id="XMLID_254_" style="fill:#FFFFFF;" d="M107.6,40.2c2.6,4,5.1,8.1,7.7,12.2c4.8-4.9,4.7-4.8-0.5-8.3c-2.2-1.5-4.2-3.3-6.3-5
	C108.2,39.4,107.9,39.8,107.6,40.2z"/>
<path id="XMLID_253_" style="fill:#FFFFFF;" d="M105.6,42c-0.5,2.9-0.9,5.8-1.6,8.7c-0.4,1.7,0,2.2,1.8,2.3c4.5,0.3,4.8,0.1,3.1-4.2
	c-0.9-2.3-1.7-4.5-2.6-6.8C106.1,42,105.9,42,105.6,42z"/>
<path id="XMLID_252_" style="fill:#FFFFFF;" d="M109.9,36.8c2.9-0.4,5.8-0.7,8.7-1.1c1.7-0.3,2.2,0.1,2.2,1.9
	c0.1,4.5-0.2,4.8-4.4,2.9c-2.2-1-4.4-2-6.6-2.9C109.9,37.3,109.9,37,109.9,36.8z"/>
<path id="XMLID_251_" style="fill:#FFFFFF;" d="M6.6,11.3C5.8,9.5,5.3,8.2,4.8,6.8C4.1,5.1,3.2,5.1,1.9,6.1C1.1,6.7,0.3,7.1,1.8,8
	C3.3,8.9,4.7,10,6.6,11.3z"/>
<path id="XMLID_250_" style="fill:#FFFDFD;" d="M100.9,3.2c-1.6,0-1.3,1.1-1.4,2C99,12,98.6,18.8,98.1,25.5c-0.1,1.3,0.3,1.8,1.6,2
	c1.4,0.2,2.8,0.5,4.2,0.8c1.8,0.5,2.5-0.1,2.8-2c1.1-6.3,2.4-12.6,3.6-18.9c0.2-0.8,0.8-1.9-0.6-2.2C106.7,4.5,103.7,3.9,100.9,3.2z
	"/>
<path id="XMLID_249_" style="fill:#FDF6F9;" d="M97,33.1c0.3,3.1,3,5.2,5.8,4.9c2.4-0.3,3.6-1.9,3.6-4.2c0-2.5-2.9-4.9-5.6-4.7
	C98.1,29.4,97,31,97,33.1z"/>
<path id="XMLID_248_" style="fill:none;" d="M84,23.8l0,3l4.3,0c0.4,0,0.7,0.3,0.7,0.7l0,2.6c0,0.4-0.3,0.7-0.7,0.7l-4.3,0l0,3
	l6.6-0.1c0.2,0,0.3,0.1,0.4,0.1c0-3.3-0.1-6.5-0.1-9.8c0-0.2,0-0.4,0-0.6c-0.1,0.1-0.3,0.2-0.4,0.2L84,23.8z"/>
<g id="XMLID_236_">
	<path id="XMLID_246_" style="fill:#FFFFFF;" d="M29.6,40.3c0.2,0.3,0.2,0.6,0.1,0.9c-0.2,0.3-0.4,0.5-0.8,0.5l-3.8,0
		c-0.3,0-0.5-0.1-0.7-0.3l-7.9-11.2l0.1,8c0,0.5-0.4,0.9-0.9,0.9l-3.1,0c-0.5,0-0.9-0.4-0.9-0.9L11.5,18c0-0.5,0.4-0.9,0.9-0.9
		l3.1,0c0.5,0,0.9,0.4,0.9,0.9l0.1,8l5.7-8.6c0.2-0.2,0.4-0.4,0.7-0.4l3.8,0c0.3,0,0.6,0.2,0.8,0.5c0.2,0.3,0.1,0.6-0.1,0.9L21,28.1
		L29.6,40.3L29.6,40.3z"/>
	<path id="XMLID_244_" style="fill:#FFFFFF;" d="M40.7,14.1c0.2,0,0.5,0.1,0.6,0.3c0.2,0.2,0.3,0.4,0.3,0.6l0.2,15.9
		c0,2.2-0.8,4.2-2.3,5.7c-1.5,1.5-3.6,2.4-5.8,2.3c-4.3-0.1-7.7-3.7-7.8-8l-0.1-13c0-0.5,0.4-0.9,0.9-0.9l3.1,0
		c0.5,0,0.9,0.4,0.9,0.9l0.1,13.1c0,1.6,1.3,3,2.9,3.1c0.8,0.1,1.7-0.2,2.3-0.8c0.6-0.6,0.9-1.4,0.9-2.2l-0.2-15.9
		c0-0.5,0.4-0.9,0.9-0.9L40.7,14.1L40.7,14.1z"/>
	<path id="XMLID_242_" style="fill:#FFFFFF;" d="M63.6,16.9c0.2,0.2,0.3,0.4,0.3,0.6l0.2,20.3c0,0.5-0.4,0.9-0.9,0.9l-3.1,0
		c-0.5,0-0.9-0.4-0.9-0.9l-0.1-9.5l-4.9,11.4c-0.1,0.3-0.4,0.5-0.8,0.5c-0.4,0-0.7-0.2-0.8-0.5l-5.1-11.3l0.1,9.5
		c0,0.5-0.4,0.9-0.9,0.9l-3.1,0c-0.5,0-0.9-0.4-0.9-0.9l-0.2-20.3c0-0.5,0.4-0.9,0.9-0.9l3.7,0c0.4,0,0.7,0.2,0.8,0.5l5.5,12.1
		l5.2-12.2c0.1-0.3,0.4-0.5,0.8-0.5l3.7,0C63.2,16.6,63.4,16.7,63.6,16.9z"/>
	<path id="XMLID_238_" style="fill:#FFFFFF;" d="M78.8,26.4c1.6,1.3,2.6,3.2,2.6,5.3c0,3.7-3.1,6.7-6.8,6.7l-8.9,0.1
		c-0.5,0-0.9-0.4-0.9-0.9l-0.2-20.2c0-0.5,0.4-0.9,0.9-0.9l7.3-0.1c3.6,0,6.7,2.7,6.9,6.3C79.8,24,79.5,25.3,78.8,26.4L78.8,26.4z
		 M69.6,25l3.4,0c1,0,1.8-0.8,1.8-1.8c0-1-0.8-1.8-1.8-1.8l-3.4,0L69.6,25z M74.7,33.4c1,0,1.8-0.8,1.8-1.8c0-1-0.8-1.8-1.8-1.8
		l-5,0.1l0,3.6L74.7,33.4L74.7,33.4z"/>
	<path id="XMLID_237_" style="fill:#FFFFFF;" d="M94.5,33.4l-8,0.1l0-3.7l5.2-0.1c0.5,0,0.9-0.4,0.9-0.9l0-3.1
		c0-0.5-0.4-0.9-0.9-0.9l-5.2,0.1l0-3.7l8-0.1c0.2,0,0.4-0.1,0.5-0.2c0-1.5,0-3-0.1-4.5c-0.1-0.1-0.3-0.2-0.5-0.2l-12,0.1l0,0
		c-0.2,0-0.4,0.1-0.6,0.3c-0.2,0.2-0.3,0.4-0.3,0.6l0.2,20.3c0,0.5,0.4,0.9,0.9,0.9l12-0.1c0.2,0,0.4-0.1,0.5-0.2c0-1.5,0-3-0.1-4.5
		C94.9,33.4,94.7,33.4,94.5,33.4z"/>
</g>
<g>
	<path style="fill:#FFFFFF;" d="M11.5,50.7l-1.5-2.6h1l0.8,1.5l0.1,0.4h0l0.1-0.5l0.8-1.5h0.9l-1.5,2.6v1.5h-0.9V50.7z"/>
	<path style="fill:#FFFFFF;" d="M13.8,50.2c0-0.3,0-0.6,0.1-0.9c0.1-0.3,0.2-0.5,0.4-0.7c0.2-0.2,0.4-0.3,0.6-0.4
		c0.2-0.1,0.5-0.1,0.8-0.1c0.3,0,0.6,0.1,0.8,0.2c0.2,0.1,0.4,0.3,0.6,0.4c0.2,0.2,0.3,0.4,0.4,0.7c0.1,0.3,0.1,0.6,0.1,0.9
		c0,0.3,0,0.6-0.1,0.9c-0.1,0.3-0.2,0.5-0.4,0.7c-0.2,0.2-0.4,0.3-0.6,0.4c-0.2,0.1-0.5,0.1-0.8,0.1c-0.3,0-0.6-0.1-0.8-0.2
		s-0.4-0.3-0.6-0.4s-0.3-0.4-0.4-0.7C13.9,50.8,13.8,50.5,13.8,50.2z M14.8,50.2c0,0.2,0,0.4,0.1,0.6c0,0.2,0.1,0.3,0.2,0.4
		c0.1,0.1,0.2,0.2,0.3,0.3c0.1,0.1,0.3,0.1,0.4,0.1c0.3,0,0.6-0.1,0.7-0.3c0.2-0.2,0.3-0.6,0.3-1.1c0-0.2,0-0.4-0.1-0.6
		c0-0.2-0.1-0.3-0.2-0.4c-0.1-0.1-0.2-0.2-0.3-0.3c-0.1-0.1-0.3-0.1-0.5-0.1c-0.3,0-0.6,0.1-0.7,0.3C14.8,49.3,14.8,49.7,14.8,50.2z
		"/>
	<path style="fill:#FFFFFF;" d="M20.8,48.1h0.8v2.7c0,0.3,0,0.5-0.1,0.7c-0.1,0.2-0.2,0.4-0.3,0.5c-0.1,0.1-0.3,0.2-0.5,0.3
		c-0.2,0.1-0.4,0.1-0.6,0.1c-0.6,0-1-0.1-1.3-0.4c-0.3-0.2-0.4-0.6-0.4-1.1v-2.8h0.9v2.6c0,0.3,0.1,0.5,0.2,0.7
		c0.1,0.1,0.3,0.2,0.6,0.2c0.3,0,0.5-0.1,0.6-0.2c0.1-0.1,0.2-0.4,0.2-0.7V48.1z"/>
	<path style="fill:#FFFFFF;" d="M22.3,48.1c0.1,0,0.2,0,0.3,0c0.1,0,0.2,0,0.3,0c0.1,0,0.2,0,0.3,0c0.1,0,0.2,0,0.3,0
		c0.2,0,0.4,0,0.6,0.1c0.2,0,0.4,0.1,0.5,0.2c0.2,0.1,0.3,0.2,0.4,0.4c0.1,0.2,0.1,0.3,0.1,0.6c0,0.3-0.1,0.6-0.3,0.8
		c-0.2,0.2-0.4,0.4-0.7,0.4l0.3,0.2l1,1.6h-1l-1-1.6l-0.5-0.1v1.7h-0.9V48.1z M23.7,48.8c-0.1,0-0.2,0-0.3,0c-0.1,0-0.2,0-0.2,0V50
		h0.4c0.2,0,0.4,0,0.6-0.1c0.1-0.1,0.2-0.3,0.2-0.5c0-0.2-0.1-0.3-0.2-0.4C24.1,48.9,23.9,48.8,23.7,48.8z"/>
	<path style="fill:#FFFFFF;" d="M29.4,50.1h1.7v1.9c-0.1,0.1-0.2,0.1-0.3,0.2c-0.1,0-0.2,0.1-0.3,0.1c-0.1,0-0.2,0.1-0.4,0.1
		c-0.1,0-0.3,0-0.4,0c-0.3,0-0.6,0-0.8-0.1c-0.2-0.1-0.5-0.2-0.6-0.4c-0.2-0.2-0.3-0.4-0.4-0.7c-0.1-0.3-0.2-0.6-0.2-1
		c0-0.4,0.1-0.7,0.2-1c0.1-0.3,0.3-0.5,0.5-0.7c0.2-0.2,0.4-0.3,0.7-0.4c0.3-0.1,0.5-0.1,0.8-0.1c0.3,0,0.5,0,0.7,0.1
		c0.2,0,0.4,0.1,0.5,0.1l-0.2,0.7c-0.1,0-0.2-0.1-0.4-0.1c-0.1,0-0.3,0-0.5,0c-0.2,0-0.4,0-0.5,0.1c-0.2,0-0.3,0.1-0.4,0.2
		c-0.1,0.1-0.2,0.3-0.3,0.4c-0.1,0.2-0.1,0.4-0.1,0.6c0,0.2,0,0.5,0.1,0.6c0.1,0.2,0.1,0.3,0.3,0.4c0.1,0.1,0.2,0.2,0.4,0.2
		c0.1,0.1,0.3,0.1,0.5,0.1c0.1,0,0.2,0,0.3,0c0.1,0,0.2-0.1,0.3-0.1v-0.7l-1-0.1V50.1z"/>
	<path style="fill:#FFFFFF;" d="M34.2,48.1H35v2.7c0,0.3,0,0.5-0.1,0.7c-0.1,0.2-0.2,0.4-0.3,0.5s-0.3,0.2-0.5,0.3
		c-0.2,0.1-0.4,0.1-0.6,0.1c-0.6,0-1-0.1-1.3-0.4c-0.3-0.2-0.4-0.6-0.4-1.1v-2.8h0.9v2.6c0,0.3,0.1,0.5,0.2,0.7
		c0.1,0.1,0.3,0.2,0.6,0.2c0.3,0,0.5-0.1,0.6-0.2c0.1-0.1,0.2-0.4,0.2-0.7V48.1z"/>
	<path style="fill:#FFFFFF;" d="M36.1,48.6h-0.5v-0.5h1.8v0.5H37v3.2h0.5v0.5h-1.8v-0.5h0.5V48.6z"/>
	<path style="fill:#FFFFFF;" d="M38.1,48.1c0.1,0,0.2,0,0.3,0c0.1,0,0.2,0,0.4,0c0.1,0,0.2,0,0.4,0c0.1,0,0.2,0,0.3,0
		c0.4,0,0.7,0.1,1,0.2c0.3,0.1,0.5,0.3,0.7,0.4c0.2,0.2,0.3,0.4,0.4,0.7c0.1,0.3,0.1,0.5,0.1,0.8c0,0.3,0,0.5-0.1,0.8
		c-0.1,0.3-0.2,0.5-0.4,0.7c-0.2,0.2-0.4,0.4-0.7,0.5c-0.3,0.1-0.7,0.2-1.1,0.2c-0.1,0-0.2,0-0.3,0c-0.1,0-0.2,0-0.4,0
		c-0.1,0-0.2,0-0.4,0c-0.1,0-0.2,0-0.2,0V48.1z M39.4,48.8c-0.1,0-0.2,0-0.3,0c-0.1,0-0.2,0-0.2,0v2.7c0,0,0.1,0,0.1,0
		c0,0,0.1,0,0.1,0c0,0,0.1,0,0.1,0c0,0,0.1,0,0.1,0c0.3,0,0.5,0,0.6-0.1c0.2-0.1,0.3-0.2,0.4-0.3c0.1-0.1,0.2-0.3,0.2-0.4
		c0-0.2,0.1-0.3,0.1-0.5c0-0.1,0-0.3-0.1-0.5c0-0.2-0.1-0.3-0.2-0.4c-0.1-0.1-0.2-0.2-0.4-0.3C39.9,48.9,39.7,48.8,39.4,48.8z"/>
	<path style="fill:#FFFFFF;" d="M42.2,48.1h2.7v0.8h-1.8v0.9h1.6v0.8h-1.6v0.9h1.8v0.8h-2.7V48.1z"/>
	<path style="fill:#FFFFFF;" d="M50.2,48.9h-1.3v3.4H48v-3.4h-1.3v-0.8h3.5V48.9z"/>
	<path style="fill:#FFFFFF;" d="M50.3,50.2c0-0.3,0-0.6,0.1-0.9c0.1-0.3,0.2-0.5,0.4-0.7c0.2-0.2,0.4-0.3,0.6-0.4
		c0.2-0.1,0.5-0.1,0.8-0.1c0.3,0,0.6,0.1,0.8,0.2c0.2,0.1,0.4,0.3,0.6,0.4c0.2,0.2,0.3,0.4,0.4,0.7c0.1,0.3,0.1,0.6,0.1,0.9
		c0,0.3,0,0.6-0.1,0.9c-0.1,0.3-0.2,0.5-0.4,0.7c-0.2,0.2-0.4,0.3-0.6,0.4c-0.2,0.1-0.5,0.1-0.8,0.1c-0.3,0-0.6-0.1-0.8-0.2
		s-0.4-0.3-0.6-0.4s-0.3-0.4-0.4-0.7C50.3,50.8,50.3,50.5,50.3,50.2z M51.2,50.2c0,0.2,0,0.4,0.1,0.6c0,0.2,0.1,0.3,0.2,0.4
		c0.1,0.1,0.2,0.2,0.3,0.3c0.1,0.1,0.3,0.1,0.4,0.1c0.3,0,0.6-0.1,0.7-0.3c0.2-0.2,0.3-0.6,0.3-1.1c0-0.2,0-0.4-0.1-0.6
		c0-0.2-0.1-0.3-0.2-0.4c-0.1-0.1-0.2-0.2-0.3-0.3c-0.1-0.1-0.3-0.1-0.5-0.1c-0.3,0-0.6,0.1-0.7,0.3C51.3,49.3,51.2,49.7,51.2,50.2z
		"/>
	<path style="fill:#FFFFFF;" d="M58.3,51.4h-1.4l-0.3,0.9h-0.9l1.6-4.2h0.6l1.6,4.2h-0.9L58.3,51.4z M57.1,50.7h1l-0.3-0.9l-0.1-0.7
		h0l-0.1,0.7L57.1,50.7z"/>
	<path style="fill:#FFFFFF;" d="M63.9,50.5h-1.7v1.7h-0.9v-4.2h0.9v1.7h1.7v-1.7h0.9v4.2h-0.9V50.5z"/>
	<path style="fill:#FFFFFF;" d="M65.5,48.1h2.7v0.8h-1.8v0.9H68v0.8h-1.6v0.9h1.8v0.8h-2.7V48.1z"/>
	<path style="fill:#FFFFFF;" d="M71.1,51.4h-1.4l-0.3,0.9h-0.9l1.6-4.2h0.6l1.6,4.2h-0.9L71.1,51.4z M70,50.7h1l-0.3-0.9l-0.1-0.7h0
		l-0.1,0.7L70,50.7z"/>
	<path style="fill:#FFFFFF;" d="M75.7,52.3h-2.9v-4.2h0.9v3.4h2V52.3z"/>
	<path style="fill:#FFFFFF;" d="M78.5,48.9h-1.3v3.4h-0.9v-3.4H75v-0.8h3.5V48.9z"/>
	<path style="fill:#FFFFFF;" d="M81.5,50.5h-1.7v1.7h-0.9v-4.2h0.9v1.7h1.7v-1.7h0.9v4.2h-0.9V50.5z"/>
	<path style="fill:#FFFFFF;" d="M84.2,50.7l-1.5-2.6h1l0.8,1.5l0.1,0.4h0l0.1-0.5l0.8-1.5h0.9l-1.5,2.6v1.5h-0.9V50.7z"/>
	<path style="fill:#FFFFFF;" d="M91.3,52.3h-2.9v-4.2h0.9v3.4h2V52.3z"/>
	<path style="fill:#FFFFFF;" d="M92.1,48.6h-0.5v-0.5h1.8v0.5H93v3.2h0.5v0.5h-1.8v-0.5h0.5V48.6z"/>
	<path style="fill:#FFFFFF;" d="M94.1,48.1h2.7v0.8h-1.8v1h1.7v0.8h-1.7v1.6h-0.9V48.1z"/>
	<path style="fill:#FFFFFF;" d="M97.3,48.1h2.7v0.8h-1.8v0.9h1.6v0.8h-1.6v0.9h1.8v0.8h-2.7V48.1z"/>
</g>
</svg>
